<svg xmlns="http://www.w3.org/2000/svg" viewBox="0 0 64 64">
  <defs>
    <linearGradient id="mkG" x1="0" y1="0" x2="1" y2="1"><stop offset="0" stop-color="#4ade80"/><stop offset=".55" stop-color="#e8ff3a"/><stop offset="1" stop-color="#ffd54a"/></linearGradient>
    <pattern id="mkH" width="8" height="8" patternUnits="userSpaceOnUse" patternTransform="rotate(45)"><rect width="4" height="8" fill="#ffd54a"/></pattern>
    <clipPath id="mkC"><path d="M9 3h38l14 14v38a6 6 0 0 1-6 6H9a6 6 0 0 1-6-6V9a6 6 0 0 1 6-6z"/></clipPath>
  </defs>
  <path d="M9 3h38l14 14v38a6 6 0 0 1-6 6H9a6 6 0 0 1-6-6V9a6 6 0 0 1 6-6z" fill="#101013"/>
  <g clip-path="url(#mkC)"><rect x="0" y="52" width="64" height="12" fill="url(#mkH)" opacity=".85"/></g>
  <path d="M47 3v14h14" fill="url(#mkG)"/>
  <path d="M18 46L32 15L46 46" fill="none" stroke="#f1f3f7" stroke-width="6.5" stroke-linecap="square" stroke-linejoin="miter"/>
  <path d="M21.5 35.5L29 42L45 25" fill="none" stroke="url(#mkG)" stroke-width="5.5" stroke-linecap="square"/>
  <path d="M9 3h38l14 14v38a6 6 0 0 1-6 6H9a6 6 0 0 1-6-6V9a6 6 0 0 1 6-6z" fill="none" stroke="url(#mkG)" stroke-width="2"/>
</svg>
